<mxfile host="app.diagrams.net" modified="2020-10-16T10:57:43.321Z" agent="5.0 (Windows NT 10.0; Win64; x64) AppleWebKit/537.36 (KHTML, like Gecko) Chrome/86.0.4240.75 Safari/537.36" etag="LyjU2EP-LAb7nq6UN36X" version="13.7.9" type="github">
  <diagram id="1cnJid6_njbCuUtxefit" name="Page-1">
    <mxGraphModel dx="763" dy="745" grid="1" gridSize="10" guides="1" tooltips="1" connect="1" arrows="1" fold="1" page="1" pageScale="1" pageWidth="827" pageHeight="1169" math="0" shadow="0">
      <root>
        <mxCell id="0" />
        <mxCell id="1" parent="0" />
        <mxCell id="scO2GmfYYuCDnMHL7bil-2" value="" style="rounded=1;whiteSpace=wrap;html=1;strokeColor=#FF0000;" parent="1" vertex="1">
          <mxGeometry x="204" y="450" width="570" height="150" as="geometry" />
        </mxCell>
        <mxCell id="scO2GmfYYuCDnMHL7bil-1" value="" style="rounded=1;whiteSpace=wrap;html=1;strokeColor=#FF0000;" parent="1" vertex="1">
          <mxGeometry x="200" y="250" width="560" height="90" as="geometry" />
        </mxCell>
        <mxCell id="GKRDgaswz_O-gcdJ8R2l-1" value="37sdk" style="shape=umlLifeline;perimeter=lifelinePerimeter;whiteSpace=wrap;html=1;container=1;collapsible=0;recursiveResize=0;outlineConnect=0;rounded=1;shadow=0;comic=0;labelBackgroundColor=none;strokeWidth=1;fontFamily=Verdana;fontSize=12;align=center;" parent="1" vertex="1">
          <mxGeometry x="240" y="120" width="100" height="520" as="geometry" />
        </mxCell>
        <mxCell id="GKRDgaswz_O-gcdJ8R2l-2" value="37后台" style="shape=umlLifeline;perimeter=lifelinePerimeter;whiteSpace=wrap;html=1;container=1;collapsible=0;recursiveResize=0;outlineConnect=0;rounded=1;shadow=0;comic=0;labelBackgroundColor=none;strokeWidth=1;fontFamily=Verdana;fontSize=12;align=center;" parent="1" vertex="1">
          <mxGeometry x="400" y="120" width="100" height="510" as="geometry" />
        </mxCell>
        <mxCell id="GKRDgaswz_O-gcdJ8R2l-3" value="GPsdk" style="shape=umlLifeline;perimeter=lifelinePerimeter;whiteSpace=wrap;html=1;container=1;collapsible=0;recursiveResize=0;outlineConnect=0;rounded=1;shadow=0;comic=0;labelBackgroundColor=none;strokeWidth=1;fontFamily=Verdana;fontSize=12;align=center;" parent="1" vertex="1">
          <mxGeometry x="540" y="120" width="100" height="510" as="geometry" />
        </mxCell>
        <mxCell id="GKRDgaswz_O-gcdJ8R2l-4" value="GP后台" style="shape=umlLifeline;perimeter=lifelinePerimeter;whiteSpace=wrap;html=1;container=1;collapsible=0;recursiveResize=0;outlineConnect=0;rounded=1;shadow=0;comic=0;labelBackgroundColor=none;strokeWidth=1;fontFamily=Verdana;fontSize=12;align=center;" parent="1" vertex="1">
          <mxGeometry x="680" y="120" width="100" height="510" as="geometry" />
        </mxCell>
        <mxCell id="GKRDgaswz_O-gcdJ8R2l-5" value="" style="html=1;verticalAlign=bottom;endArrow=block;labelBackgroundColor=none;fontFamily=Verdana;fontSize=12;edgeStyle=elbowEdgeStyle;elbow=vertical;" parent="1" edge="1">
          <mxGeometry x="-0.5088" relative="1" as="geometry">
            <mxPoint x="289.6666666666665" y="200" as="sourcePoint" />
            <Array as="points">
              <mxPoint x="310" y="200" />
            </Array>
            <mxPoint x="590" y="200" as="targetPoint" />
            <mxPoint as="offset" />
          </mxGeometry>
        </mxCell>
        <mxCell id="GKRDgaswz_O-gcdJ8R2l-6" value="&lt;span style=&quot;font-family: &amp;#34;verdana&amp;#34; ; font-size: 12px ; background-color: rgb(248 , 249 , 250)&quot;&gt;查询未消耗订单&lt;/span&gt;" style="edgeLabel;html=1;align=center;verticalAlign=middle;resizable=0;points=[];" parent="GKRDgaswz_O-gcdJ8R2l-5" vertex="1" connectable="0">
          <mxGeometry x="-0.4885" y="-1" relative="1" as="geometry">
            <mxPoint x="80.83" y="-1" as="offset" />
          </mxGeometry>
        </mxCell>
        <mxCell id="GKRDgaswz_O-gcdJ8R2l-7" value="&lt;font style=&quot;font-size: 18px&quot;&gt;调用时机：&lt;br&gt;初始化以后&lt;/font&gt;" style="shape=note;whiteSpace=wrap;html=1;size=14;verticalAlign=top;align=left;spacingTop=-6;rounded=0;shadow=0;comic=0;labelBackgroundColor=none;strokeWidth=1;fontFamily=Verdana;fontSize=12" parent="1" vertex="1">
          <mxGeometry x="70" y="80" width="110" height="50" as="geometry" />
        </mxCell>
        <mxCell id="GKRDgaswz_O-gcdJ8R2l-8" value="" style="endArrow=classic;html=1;" parent="1" edge="1">
          <mxGeometry width="50" height="50" relative="1" as="geometry">
            <mxPoint x="725.1700000000001" y="230" as="sourcePoint" />
            <mxPoint x="595" y="230" as="targetPoint" />
            <Array as="points" />
          </mxGeometry>
        </mxCell>
        <mxCell id="GKRDgaswz_O-gcdJ8R2l-9" value="返回订单" style="edgeLabel;html=1;align=center;verticalAlign=middle;resizable=0;points=[];" parent="GKRDgaswz_O-gcdJ8R2l-8" vertex="1" connectable="0">
          <mxGeometry x="-0.2486" y="-1" relative="1" as="geometry">
            <mxPoint x="-17.5" as="offset" />
          </mxGeometry>
        </mxCell>
        <mxCell id="GKRDgaswz_O-gcdJ8R2l-10" value="" style="html=1;verticalAlign=bottom;endArrow=block;labelBackgroundColor=none;fontFamily=Verdana;fontSize=12;edgeStyle=elbowEdgeStyle;elbow=vertical;" parent="1" edge="1">
          <mxGeometry relative="1" as="geometry">
            <mxPoint x="595" y="210.32705882352957" as="sourcePoint" />
            <mxPoint x="720" y="210.32999999999993" as="targetPoint" />
          </mxGeometry>
        </mxCell>
        <mxCell id="GKRDgaswz_O-gcdJ8R2l-11" value="&lt;span style=&quot;font-family: &amp;#34;verdana&amp;#34; ; font-size: 12px ; background-color: rgb(248 , 249 , 250)&quot;&gt;查询未消耗订单&lt;/span&gt;" style="edgeLabel;html=1;align=center;verticalAlign=middle;resizable=0;points=[];" parent="GKRDgaswz_O-gcdJ8R2l-10" vertex="1" connectable="0">
          <mxGeometry x="-0.1592" y="-2" relative="1" as="geometry">
            <mxPoint x="12.83" y="-1.67" as="offset" />
          </mxGeometry>
        </mxCell>
        <mxCell id="GKRDgaswz_O-gcdJ8R2l-12" value="" style="endArrow=classic;html=1;exitX=0.5;exitY=0.379;exitDx=0;exitDy=0;exitPerimeter=0;" parent="1" edge="1">
          <mxGeometry width="50" height="50" relative="1" as="geometry">
            <mxPoint x="590" y="239.82000000000005" as="sourcePoint" />
            <mxPoint x="290" y="240" as="targetPoint" />
          </mxGeometry>
        </mxCell>
        <mxCell id="GKRDgaswz_O-gcdJ8R2l-13" value="返回订单" style="edgeLabel;html=1;align=center;verticalAlign=middle;resizable=0;points=[];" parent="GKRDgaswz_O-gcdJ8R2l-12" vertex="1" connectable="0">
          <mxGeometry x="0.2551" y="2" relative="1" as="geometry">
            <mxPoint x="48" y="-1.9299999999999997" as="offset" />
          </mxGeometry>
        </mxCell>
        <mxCell id="GKRDgaswz_O-gcdJ8R2l-14" value="" style="html=1;verticalAlign=bottom;endArrow=block;labelBackgroundColor=none;fontFamily=Verdana;fontSize=12;edgeStyle=elbowEdgeStyle;elbow=vertical;" parent="1" edge="1">
          <mxGeometry x="-0.5088" relative="1" as="geometry">
            <mxPoint x="290" y="360" as="sourcePoint" />
            <Array as="points">
              <mxPoint x="400" y="360" />
              <mxPoint x="300" y="370" />
            </Array>
            <mxPoint x="589.5000000000002" y="360" as="targetPoint" />
            <mxPoint as="offset" />
          </mxGeometry>
        </mxCell>
        <mxCell id="GKRDgaswz_O-gcdJ8R2l-15" value="&lt;span style=&quot;font-family: &amp;#34;verdana&amp;#34; ; font-size: 12px ; background-color: rgb(248 , 249 , 250)&quot;&gt;查询商品详情&lt;/span&gt;" style="edgeLabel;html=1;align=center;verticalAlign=middle;resizable=0;points=[];" parent="GKRDgaswz_O-gcdJ8R2l-14" vertex="1" connectable="0">
          <mxGeometry x="-0.4885" y="-1" relative="1" as="geometry">
            <mxPoint x="93.33" y="-1" as="offset" />
          </mxGeometry>
        </mxCell>
        <mxCell id="GKRDgaswz_O-gcdJ8R2l-16" value="" style="html=1;verticalAlign=bottom;endArrow=block;labelBackgroundColor=none;fontFamily=Verdana;fontSize=12;edgeStyle=elbowEdgeStyle;elbow=vertical;" parent="1" edge="1">
          <mxGeometry relative="1" as="geometry">
            <mxPoint x="590" y="370" as="sourcePoint" />
            <mxPoint x="729.5" y="370" as="targetPoint" />
            <Array as="points">
              <mxPoint x="610" y="370" />
            </Array>
          </mxGeometry>
        </mxCell>
        <mxCell id="GKRDgaswz_O-gcdJ8R2l-17" value="&lt;span style=&quot;font-family: &amp;#34;verdana&amp;#34; ; font-size: 12px ; background-color: rgb(248 , 249 , 250)&quot;&gt;查询商品详情&lt;/span&gt;" style="edgeLabel;html=1;align=center;verticalAlign=middle;resizable=0;points=[];" parent="GKRDgaswz_O-gcdJ8R2l-16" vertex="1" connectable="0">
          <mxGeometry x="-0.1592" y="-2" relative="1" as="geometry">
            <mxPoint x="12.83" y="-1.67" as="offset" />
          </mxGeometry>
        </mxCell>
        <mxCell id="GKRDgaswz_O-gcdJ8R2l-18" value="" style="endArrow=classic;html=1;" parent="1" edge="1">
          <mxGeometry width="50" height="50" relative="1" as="geometry">
            <mxPoint x="729.5" y="389.5799999999999" as="sourcePoint" />
            <mxPoint x="590" y="389.5799999999999" as="targetPoint" />
            <Array as="points" />
          </mxGeometry>
        </mxCell>
        <mxCell id="GKRDgaswz_O-gcdJ8R2l-19" value="返回商品详情" style="edgeLabel;html=1;align=center;verticalAlign=middle;resizable=0;points=[];" parent="GKRDgaswz_O-gcdJ8R2l-18" vertex="1" connectable="0">
          <mxGeometry x="-0.2486" y="-1" relative="1" as="geometry">
            <mxPoint x="-17.5" as="offset" />
          </mxGeometry>
        </mxCell>
        <mxCell id="GKRDgaswz_O-gcdJ8R2l-20" value="" style="endArrow=classic;html=1;" parent="1" edge="1">
          <mxGeometry width="50" height="50" relative="1" as="geometry">
            <mxPoint x="589.5000000000002" y="400" as="sourcePoint" />
            <mxPoint x="290" y="400" as="targetPoint" />
          </mxGeometry>
        </mxCell>
        <mxCell id="GKRDgaswz_O-gcdJ8R2l-21" value="返回商品详情" style="edgeLabel;html=1;align=center;verticalAlign=middle;resizable=0;points=[];" parent="GKRDgaswz_O-gcdJ8R2l-20" vertex="1" connectable="0">
          <mxGeometry x="0.2551" y="2" relative="1" as="geometry">
            <mxPoint x="59.16" y="-5.85" as="offset" />
          </mxGeometry>
        </mxCell>
        <mxCell id="GKRDgaswz_O-gcdJ8R2l-22" value="" style="html=1;verticalAlign=bottom;endArrow=block;labelBackgroundColor=none;fontFamily=Verdana;fontSize=12;edgeStyle=elbowEdgeStyle;elbow=vertical;" parent="1" edge="1">
          <mxGeometry x="-0.5088" relative="1" as="geometry">
            <mxPoint x="294" y="460" as="sourcePoint" />
            <Array as="points">
              <mxPoint x="304" y="460" />
            </Array>
            <mxPoint x="454" y="460" as="targetPoint" />
            <mxPoint as="offset" />
          </mxGeometry>
        </mxCell>
        <mxCell id="GKRDgaswz_O-gcdJ8R2l-23" value="&lt;span style=&quot;font-family: &amp;#34;verdana&amp;#34; ; font-size: 12px ; background-color: rgb(248 , 249 , 250)&quot;&gt;验证订单发货&lt;/span&gt;" style="edgeLabel;html=1;align=center;verticalAlign=middle;resizable=0;points=[];" parent="GKRDgaswz_O-gcdJ8R2l-22" vertex="1" connectable="0">
          <mxGeometry x="-0.4885" y="-1" relative="1" as="geometry">
            <mxPoint x="39.17" y="-1" as="offset" />
          </mxGeometry>
        </mxCell>
        <mxCell id="GKRDgaswz_O-gcdJ8R2l-24" value="" style="endArrow=classic;html=1;" parent="1" edge="1">
          <mxGeometry width="50" height="50" relative="1" as="geometry">
            <mxPoint x="454.3299999999999" y="480" as="sourcePoint" />
            <mxPoint x="293.99666666666667" y="480" as="targetPoint" />
            <Array as="points" />
          </mxGeometry>
        </mxCell>
        <mxCell id="GKRDgaswz_O-gcdJ8R2l-25" value="回调" style="edgeLabel;html=1;align=center;verticalAlign=middle;resizable=0;points=[];" parent="GKRDgaswz_O-gcdJ8R2l-24" vertex="1" connectable="0">
          <mxGeometry x="-0.2486" y="-1" relative="1" as="geometry">
            <mxPoint x="-27.5" as="offset" />
          </mxGeometry>
        </mxCell>
        <mxCell id="GKRDgaswz_O-gcdJ8R2l-26" value="发货成功后&lt;br&gt;删除数据库订单" style="html=1;verticalAlign=bottom;endArrow=block;labelBackgroundColor=none;fontFamily=Verdana;fontSize=12;elbow=vertical;edgeStyle=orthogonalEdgeStyle;curved=1;" parent="1" edge="1">
          <mxGeometry x="1" y="51" relative="1" as="geometry">
            <mxPoint x="294" y="500" as="sourcePoint" />
            <mxPoint x="294" y="520" as="targetPoint" />
            <Array as="points">
              <mxPoint x="324" y="500" />
              <mxPoint x="324" y="520" />
            </Array>
            <mxPoint x="-50" y="-41" as="offset" />
          </mxGeometry>
        </mxCell>
        <mxCell id="GKRDgaswz_O-gcdJ8R2l-27" value="" style="html=1;verticalAlign=bottom;endArrow=block;labelBackgroundColor=none;fontFamily=Verdana;fontSize=12;edgeStyle=elbowEdgeStyle;elbow=vertical;" parent="1" edge="1">
          <mxGeometry x="-0.5088" relative="1" as="geometry">
            <mxPoint x="294" y="540" as="sourcePoint" />
            <Array as="points">
              <mxPoint x="304" y="540" />
            </Array>
            <mxPoint x="593.5000000000002" y="540" as="targetPoint" />
            <mxPoint as="offset" />
          </mxGeometry>
        </mxCell>
        <mxCell id="GKRDgaswz_O-gcdJ8R2l-28" value="&lt;span style=&quot;font-family: &amp;#34;verdana&amp;#34; ; font-size: 12px ; background-color: rgb(248 , 249 , 250)&quot;&gt;调用消耗&lt;/span&gt;" style="edgeLabel;html=1;align=center;verticalAlign=middle;resizable=0;points=[];" parent="GKRDgaswz_O-gcdJ8R2l-27" vertex="1" connectable="0">
          <mxGeometry x="-0.4885" y="-1" relative="1" as="geometry">
            <mxPoint x="83.33" y="-1" as="offset" />
          </mxGeometry>
        </mxCell>
        <mxCell id="GKRDgaswz_O-gcdJ8R2l-29" value="" style="endArrow=classic;html=1;" parent="1" edge="1">
          <mxGeometry width="50" height="50" relative="1" as="geometry">
            <mxPoint x="588.5000000000002" y="580" as="sourcePoint" />
            <mxPoint x="294" y="580" as="targetPoint" />
          </mxGeometry>
        </mxCell>
        <mxCell id="GKRDgaswz_O-gcdJ8R2l-30" value="消耗回调" style="edgeLabel;html=1;align=center;verticalAlign=middle;resizable=0;points=[];" parent="GKRDgaswz_O-gcdJ8R2l-29" vertex="1" connectable="0">
          <mxGeometry x="0.2551" y="2" relative="1" as="geometry">
            <mxPoint x="50.5" y="-1.9999999999999996" as="offset" />
          </mxGeometry>
        </mxCell>
        <mxCell id="GKRDgaswz_O-gcdJ8R2l-31" value="" style="html=1;verticalAlign=bottom;endArrow=block;labelBackgroundColor=none;fontFamily=Verdana;fontSize=12;edgeStyle=elbowEdgeStyle;elbow=vertical;" parent="1" edge="1">
          <mxGeometry relative="1" as="geometry">
            <mxPoint x="594" y="550" as="sourcePoint" />
            <mxPoint x="733.5" y="550" as="targetPoint" />
            <Array as="points">
              <mxPoint x="614" y="550" />
            </Array>
          </mxGeometry>
        </mxCell>
        <mxCell id="GKRDgaswz_O-gcdJ8R2l-32" value="&lt;span style=&quot;font-family: &amp;#34;verdana&amp;#34; ; font-size: 12px ; background-color: rgb(248 , 249 , 250)&quot;&gt;调用消耗&lt;/span&gt;" style="edgeLabel;html=1;align=center;verticalAlign=middle;resizable=0;points=[];" parent="GKRDgaswz_O-gcdJ8R2l-31" vertex="1" connectable="0">
          <mxGeometry x="-0.1592" y="-2" relative="1" as="geometry">
            <mxPoint x="12.83" y="-1.67" as="offset" />
          </mxGeometry>
        </mxCell>
        <mxCell id="GKRDgaswz_O-gcdJ8R2l-33" value="" style="endArrow=classic;html=1;" parent="1" edge="1">
          <mxGeometry width="50" height="50" relative="1" as="geometry">
            <mxPoint x="733.5" y="570" as="sourcePoint" />
            <mxPoint x="594" y="570" as="targetPoint" />
            <Array as="points" />
          </mxGeometry>
        </mxCell>
        <mxCell id="GKRDgaswz_O-gcdJ8R2l-34" value="消耗回调" style="edgeLabel;html=1;align=center;verticalAlign=middle;resizable=0;points=[];" parent="GKRDgaswz_O-gcdJ8R2l-33" vertex="1" connectable="0">
          <mxGeometry x="-0.2486" y="-1" relative="1" as="geometry">
            <mxPoint x="-17.5" as="offset" />
          </mxGeometry>
        </mxCell>
        <mxCell id="GKRDgaswz_O-gcdJ8R2l-35" value="" style="html=1;verticalAlign=bottom;endArrow=block;labelBackgroundColor=none;fontFamily=Verdana;fontSize=12;edgeStyle=elbowEdgeStyle;elbow=vertical;" parent="1" edge="1">
          <mxGeometry relative="1" as="geometry">
            <mxPoint x="594" y="549.5799999999999" as="sourcePoint" />
            <mxPoint x="733.5" y="549.5799999999999" as="targetPoint" />
            <Array as="points">
              <mxPoint x="614" y="549.5799999999999" />
            </Array>
          </mxGeometry>
        </mxCell>
        <mxCell id="GKRDgaswz_O-gcdJ8R2l-36" value="&lt;span style=&quot;font-family: &amp;#34;verdana&amp;#34; ; font-size: 12px ; background-color: rgb(248 , 249 , 250)&quot;&gt;调用消耗&lt;/span&gt;" style="edgeLabel;html=1;align=center;verticalAlign=middle;resizable=0;points=[];" parent="GKRDgaswz_O-gcdJ8R2l-35" vertex="1" connectable="0">
          <mxGeometry x="-0.1592" y="-2" relative="1" as="geometry">
            <mxPoint x="12.83" y="-1.67" as="offset" />
          </mxGeometry>
        </mxCell>
        <mxCell id="GKRDgaswz_O-gcdJ8R2l-37" value="" style="html=1;verticalAlign=bottom;endArrow=block;labelBackgroundColor=none;fontFamily=Verdana;fontSize=12;edgeStyle=elbowEdgeStyle;elbow=vertical;" parent="1" edge="1">
          <mxGeometry relative="1" as="geometry">
            <mxPoint x="594" y="549.5799999999999" as="sourcePoint" />
            <mxPoint x="733.5" y="549.5799999999999" as="targetPoint" />
            <Array as="points">
              <mxPoint x="614" y="549.5799999999999" />
            </Array>
          </mxGeometry>
        </mxCell>
        <mxCell id="GKRDgaswz_O-gcdJ8R2l-38" value="&lt;span style=&quot;font-family: &amp;#34;verdana&amp;#34; ; font-size: 12px ; background-color: rgb(248 , 249 , 250)&quot;&gt;调用消耗&lt;/span&gt;" style="edgeLabel;html=1;align=center;verticalAlign=middle;resizable=0;points=[];" parent="GKRDgaswz_O-gcdJ8R2l-37" vertex="1" connectable="0">
          <mxGeometry x="-0.1592" y="-2" relative="1" as="geometry">
            <mxPoint x="12.83" y="-1.67" as="offset" />
          </mxGeometry>
        </mxCell>
        <mxCell id="GKRDgaswz_O-gcdJ8R2l-39" value="" style="html=1;verticalAlign=bottom;endArrow=block;labelBackgroundColor=none;fontFamily=Verdana;fontSize=12;edgeStyle=elbowEdgeStyle;elbow=vertical;" parent="1" edge="1">
          <mxGeometry x="-0.5088" relative="1" as="geometry">
            <mxPoint x="294" y="460" as="sourcePoint" />
            <Array as="points">
              <mxPoint x="304" y="460" />
            </Array>
            <mxPoint x="454" y="460" as="targetPoint" />
            <mxPoint as="offset" />
          </mxGeometry>
        </mxCell>
        <mxCell id="GKRDgaswz_O-gcdJ8R2l-40" value="&lt;span style=&quot;font-family: &amp;#34;verdana&amp;#34; ; font-size: 12px ; background-color: rgb(248 , 249 , 250)&quot;&gt;验证订单发货&lt;/span&gt;" style="edgeLabel;html=1;align=center;verticalAlign=middle;resizable=0;points=[];" parent="GKRDgaswz_O-gcdJ8R2l-39" vertex="1" connectable="0">
          <mxGeometry x="-0.4885" y="-1" relative="1" as="geometry">
            <mxPoint x="39.17" y="-1" as="offset" />
          </mxGeometry>
        </mxCell>
        <mxCell id="GKRDgaswz_O-gcdJ8R2l-41" value="" style="html=1;verticalAlign=bottom;endArrow=block;labelBackgroundColor=none;fontFamily=Verdana;fontSize=12;edgeStyle=elbowEdgeStyle;elbow=vertical;" parent="1" edge="1">
          <mxGeometry x="-0.5088" relative="1" as="geometry">
            <mxPoint x="294" y="460" as="sourcePoint" />
            <Array as="points">
              <mxPoint x="304" y="460" />
            </Array>
            <mxPoint x="454" y="460" as="targetPoint" />
            <mxPoint as="offset" />
          </mxGeometry>
        </mxCell>
        <mxCell id="GKRDgaswz_O-gcdJ8R2l-42" value="&lt;span style=&quot;font-family: &amp;#34;verdana&amp;#34; ; font-size: 12px ; background-color: rgb(248 , 249 , 250)&quot;&gt;验证订单发货&lt;/span&gt;" style="edgeLabel;html=1;align=center;verticalAlign=middle;resizable=0;points=[];" parent="GKRDgaswz_O-gcdJ8R2l-41" vertex="1" connectable="0">
          <mxGeometry x="-0.4885" y="-1" relative="1" as="geometry">
            <mxPoint x="39.17" y="-1" as="offset" />
          </mxGeometry>
        </mxCell>
        <mxCell id="GKRDgaswz_O-gcdJ8R2l-43" value="判断支付状态" style="html=1;verticalAlign=bottom;endArrow=block;labelBackgroundColor=none;fontFamily=Verdana;fontSize=12;elbow=vertical;edgeStyle=orthogonalEdgeStyle;curved=1;" parent="1" edge="1">
          <mxGeometry x="1" y="40" relative="1" as="geometry">
            <mxPoint x="290" y="250" as="sourcePoint" />
            <mxPoint x="290" y="270" as="targetPoint" />
            <Array as="points">
              <mxPoint x="320" y="250" />
              <mxPoint x="320" y="270" />
            </Array>
            <mxPoint x="-40" y="-40" as="offset" />
          </mxGeometry>
        </mxCell>
        <mxCell id="GKRDgaswz_O-gcdJ8R2l-44" value="" style="html=1;verticalAlign=bottom;endArrow=block;labelBackgroundColor=none;fontFamily=Verdana;fontSize=12;edgeStyle=elbowEdgeStyle;elbow=vertical;" parent="1" edge="1">
          <mxGeometry x="-0.5088" relative="1" as="geometry">
            <mxPoint x="294" y="460" as="sourcePoint" />
            <Array as="points">
              <mxPoint x="304" y="460" />
            </Array>
            <mxPoint x="454" y="460" as="targetPoint" />
            <mxPoint as="offset" />
          </mxGeometry>
        </mxCell>
        <mxCell id="GKRDgaswz_O-gcdJ8R2l-45" value="&lt;span style=&quot;font-family: &amp;#34;verdana&amp;#34; ; font-size: 12px ; background-color: rgb(248 , 249 , 250)&quot;&gt;验证订单发货&lt;/span&gt;" style="edgeLabel;html=1;align=center;verticalAlign=middle;resizable=0;points=[];" parent="GKRDgaswz_O-gcdJ8R2l-44" vertex="1" connectable="0">
          <mxGeometry x="-0.4885" y="-1" relative="1" as="geometry">
            <mxPoint x="39.17" y="-1" as="offset" />
          </mxGeometry>
        </mxCell>
        <mxCell id="GKRDgaswz_O-gcdJ8R2l-46" value="" style="endArrow=classic;html=1;" parent="1" edge="1">
          <mxGeometry width="50" height="50" relative="1" as="geometry">
            <mxPoint x="450.3299999999999" y="330" as="sourcePoint" />
            <mxPoint x="289.99666666666667" y="330" as="targetPoint" />
            <Array as="points" />
          </mxGeometry>
        </mxCell>
        <mxCell id="GKRDgaswz_O-gcdJ8R2l-47" value="回传uuid、paid" style="edgeLabel;html=1;align=center;verticalAlign=middle;resizable=0;points=[];" parent="GKRDgaswz_O-gcdJ8R2l-46" vertex="1" connectable="0">
          <mxGeometry x="-0.2486" y="-1" relative="1" as="geometry">
            <mxPoint x="-27.5" as="offset" />
          </mxGeometry>
        </mxCell>
        <mxCell id="GKRDgaswz_O-gcdJ8R2l-48" value="" style="html=1;verticalAlign=bottom;endArrow=block;labelBackgroundColor=none;fontFamily=Verdana;fontSize=12;edgeStyle=elbowEdgeStyle;elbow=vertical;" parent="1" edge="1">
          <mxGeometry x="-0.5088" relative="1" as="geometry">
            <mxPoint x="290" y="300" as="sourcePoint" />
            <Array as="points">
              <mxPoint x="300" y="300" />
            </Array>
            <mxPoint x="450" y="300" as="targetPoint" />
            <mxPoint as="offset" />
          </mxGeometry>
        </mxCell>
        <mxCell id="GKRDgaswz_O-gcdJ8R2l-49" value="&lt;font face=&quot;verdana&quot;&gt;本地订单号若空，&lt;br&gt;发起后端请求&lt;/font&gt;" style="edgeLabel;html=1;align=center;verticalAlign=middle;resizable=0;points=[];" parent="GKRDgaswz_O-gcdJ8R2l-48" vertex="1" connectable="0">
          <mxGeometry x="-0.4885" y="-1" relative="1" as="geometry">
            <mxPoint x="39.17" y="-11" as="offset" />
          </mxGeometry>
        </mxCell>
        <mxCell id="scO2GmfYYuCDnMHL7bil-3" value="修改1：补单的请求接口" style="text;html=1;strokeColor=#FF0000;fillColor=none;align=center;verticalAlign=middle;whiteSpace=wrap;rounded=0;" parent="1" vertex="1">
          <mxGeometry x="70" y="260" width="130" height="20" as="geometry" />
        </mxCell>
        <mxCell id="scO2GmfYYuCDnMHL7bil-4" value="修改2：发货和消耗的逻辑" style="text;html=1;strokeColor=#FF0000;fillColor=none;align=center;verticalAlign=middle;whiteSpace=wrap;rounded=0;" parent="1" vertex="1">
          <mxGeometry x="54" y="470" width="150" height="20" as="geometry" />
        </mxCell>
        <mxCell id="WxgA9ZDNyKh74vPM3fY_-1" value="订单存储得到数据库" style="html=1;verticalAlign=bottom;endArrow=block;labelBackgroundColor=none;fontFamily=Verdana;fontSize=12;elbow=vertical;edgeStyle=orthogonalEdgeStyle;curved=1;" edge="1" parent="1">
          <mxGeometry x="1" y="60" relative="1" as="geometry">
            <mxPoint x="290" y="410" as="sourcePoint" />
            <mxPoint x="290" y="430" as="targetPoint" />
            <Array as="points">
              <mxPoint x="340" y="410" />
              <mxPoint x="340" y="430" />
            </Array>
            <mxPoint x="-60" y="-60" as="offset" />
          </mxGeometry>
        </mxCell>
      </root>
    </mxGraphModel>
  </diagram>
</mxfile>
